<svg xmlns="http://www.w3.org/2000/svg" width="1em" height="1em" viewBox="0 0 24 24">
	<path d="M0 0h24v24H0z" fill="none" />
	<path fill="currentColor" fill-rule="evenodd" d="M19 11a2 2 0 0 1 1.995 1.85L21 13v6a2 2 0 0 1-1.85 1.995L19 21h-4a2 2 0 0 1-1.995-1.85L13 19v-6a2 2 0 0 1 1.85-1.995L15 11zm0-8a2 2 0 0 1 2 2v2a2 2 0 0 1-2 2h-4a2 2 0 0 1-2-2V5a2 2 0 0 1 2-2z" class="duoicon-secondary-layer" opacity=".3" />
	<path fill="currentColor" fill-rule="evenodd" d="M9 3a2 2 0 0 1 2 2v6a2 2 0 0 1-2 2H5a2 2 0 0 1-2-2V5a2 2 0 0 1 2-2z" class="duoicon-primary-layer" />
	<path fill="currentColor" fill-rule="evenodd" d="M9 15a2 2 0 0 1 2 2v2a2 2 0 0 1-2 2H5a2 2 0 0 1-2-2v-2a2 2 0 0 1 2-2z" class="duoicon-secondary-layer" opacity=".3" />
</svg>