<svg xmlns="http://www.w3.org/2000/svg" width="1em" height="1em" viewBox="0 0 24 24">
	<path d="M0 0h24v24H0z" fill="none" />
	<g fill="none" stroke="currentColor" stroke-width="1.5">
		<path stroke-linecap="round" d="M11.007 21H9.605c-3.585 0-5.377 0-6.491-1.135S2 16.904 2 13.25c0-3.653 0-5.48 1.114-6.615S6.02 5.5 9.605 5.5h3.803c3.585 0 5.378 0 6.492 1.135c.857.873 1.054 2.156 1.1 4.365" />
		<path stroke-linecap="round" stroke-linejoin="round" d="M20.017 20.023L22 22m-.947-4.474a3.527 3.527 0 1 0-7.053 0a3.527 3.527 0 0 0 7.053 0" />
		<path d="m16 5.5l-.1-.31c-.495-1.54-.742-2.31-1.331-2.75C13.979 2 13.197 2 11.63 2h-.263c-1.565 0-2.348 0-2.937.44c-.59.44-.837 1.21-1.332 2.75L7 5.5" />
	</g>
</svg>
