<svg xmlns="http://www.w3.org/2000/svg" width="1em" height="1em" viewBox="0 0 24 24">
	<path d="M0 0h24v24H0z" fill="none" />
	<g fill="none" stroke="currentColor" stroke-linecap="round" stroke-linejoin="round" stroke-width="1.5">
		<path d="M2.01 5.102a2.184 2.184 0 1 0 4.368 0a2.184 2.184 0 0 0-4.368 0m5.628 5.082a3.743 3.743 0 0 0-5.628-1.57m15.612-3.512a2.184 2.184 0 1 0 4.368 0a2.184 2.184 0 0 0-4.368 0m-1.26 5.082a3.743 3.743 0 0 1 5.628-1.57M8.663 4.087a3.337 3.337 0 1 0 6.674 0a3.337 3.337 0 0 0-6.674 0" />
		<path d="M17.773 11.46a7.807 7.807 0 0 0-11.546 0m9.728 2.396a3.956 3.956 0 0 1-7.911 0" />
		<path d="M21.394 13.852v1.487l-1.7.34a7.8 7.8 0 0 1-.973 2.33l.969 1.444l-2.1 2.1l-1.443-.969a7.8 7.8 0 0 1-2.334.979l-.336 1.691h-2.96l-.337-1.691a7.8 7.8 0 0 1-2.333-.979l-1.447.965l-2.1-2.1l.969-1.444a7.8 7.8 0 0 1-.974-2.33l-1.7-.34v-1.483" />
	</g>
</svg>
